<?xml version="1.0" standalone="yes"?>
<svg xmlns="http://www.w3.org/2000/svg" width="40" height="40">
<path style="fill:#000000; stroke:none;" d="M0 0L0 14C3.98233 8.32911 7.08489 3.2951 14 1C9.78347 -0.769333 4.54115 0 0 0z"/>
<path style="fill:#fad007; stroke:none;" d="M14 0.53318C1.28271 3.60492 -4.07272 20.2035 2.61343 30.9606C7.53905 38.8853 17.1804 41.5971 26 39.4668C38.7173 36.3951 44.0727 19.7965 37.3866 9.03935C32.4609 1.11469 22.8196 -1.59711 14 0.53318z"/>
<path style="fill:#000000; stroke:none;" d="M26 0C31.6709 3.98232 36.7049 7.0849 39 14C40.7693 9.78348 40 4.54114 40 0L26 0M11 20L22 20C16.8029 22.6639 15.5581 25.5278 14 31C19.5512 29.1594 26.0007 25.1005 29 20L23 20L26 9C20.4488 10.8406 13.9993 14.8995 11 20M0 26L0 40L14 40C7.98064 35.773 4.22704 32.0194 0 26M39 26C36.9016 32.3225 32.3225 36.9016 26 39C30.2165 40.7693 35.4589 40 40 40C40 35.4589 40.7693 30.2165 39 26z"/>
</svg>
